                                                                        S      1
1H,,1H;,70HT:\Transfer\Taylor\Catalog Zemax files\Large Achromatic\IGES_G      1
31402.IGS,70HT:\Transfer\Taylor\Catalog Zemax files\Large Achromatic\IGEG      2
S_31402.IGS,23HHarmonyWare Translators,23HHarmonyWare IGES v1.6.5,32,38,G      3
6,308,15,,1.,2,2HMM,1,1.,15H20081107.100318,0.0001,626.56,,,11,0,15H2008G      4
1107.100318;                                                            G      5
     502       1       0       0       0       0       0       000010000D      1
     502       0       0       1       1                               0D      2
     126       2       0       0       0       0       0       000010000D      3
     126       0       0      11       0                               0D      4
     126      13       0       0       0       0       0       000010000D      5
     126       0       0      11       0                               0D      6
     126      24       0       0       0       0       0       000010000D      7
     126       0       0       2       0                               0D      8
     504      26       0       0       0       0       0       000010000D      9
     504       0       0       1       1                               0D     10
     128      27       0       0       0       0       0       000010000D     11
     128       0       0      18       0                               0D     12
     508      45       0       0       0       0       0       000010000D     13
     508       0       0       1       1                               0D     14
     406      46       0       0       0       0       0       000000000D     15
     406       0       0       1    7223                               0D     16
     510      47       0       0       0       0       0       000010000D     17
     510       0       0       1       1                               0D     18
     128      48       0       0       0       0       0       000010000D     19
     128       0       0      17       0                               0D     20
     508      65       0       0       0       0       0       000010000D     21
     508       0       0       1       1                               0D     22
     406      66       0       0       0       0       0       000000000D     23
     406       0       0       1    7223                               0D     24
     510      67       0       0       0       0       0       000010000D     25
     510       0       0       1       1                               0D     26
     128      68       0       0       0       0       0       000010000D     27
     128       0       0      15       0                               0D     28
     508      83       0       0       0       0       0       000010000D     29
     508       0       0       1       1                               0D     30
     406      84       0       0       0       0       0       000000000D     31
     406       0       0       1    7223                               0D     32
     510      85       0       0       0       0       0       000010000D     33
     510       0       0       1       1                               0D     34
     514      86       0       0       0       0       0       000010000D     35
     514       0       0       1       1                               0D     36
     186      87       0       0       0       0       0       000000000D     37
     186       0       0       1       0                               0D     38
     502      88       0       0       0       0       0       000010000D     39
     502       0       0       1       1                               0D     40
     126      89       0       0       0       0       0       000010000D     41
     126       0       0      11       0                               0D     42
     126     100       0       0       0       0       0       000010000D     43
     126       0       0      11       0                               0D     44
     126     111       0       0       0       0       0       000010000D     45
     126       0       0       2       0                               0D     46
     504     113       0       0       0       0       0       000010000D     47
     504       0       0       1       1                               0D     48
     128     114       0       0       0       0       0       000010000D     49
     128       0       0      17       0                               0D     50
     508     131       0       0       0       0       0       000010000D     51
     508       0       0       1       1                               0D     52
     406     132       0       0       0       0       0       000000000D     53
     406       0       0       1    7223                               0D     54
     510     133       0       0       0       0       0       000010000D     55
     510       0       0       1       1                               0D     56
     128     134       0       0       0       0       0       000010000D     57
     128       0       0      17       0                               0D     58
     508     151       0       0       0       0       0       000010000D     59
     508       0       0       1       1                               0D     60
     406     152       0       0       0       0       0       000000000D     61
     406       0       0       1    7223                               0D     62
     510     153       0       0       0       0       0       000010000D     63
     510       0       0       1       1                               0D     64
     128     154       0       0       0       0       0       000010000D     65
     128       0       0      15       0                               0D     66
     508     169       0       0       0       0       0       000010000D     67
     508       0       0       1       1                               0D     68
     406     170       0       0       0       0       0       000000000D     69
     406       0       0       1    7223                               0D     70
     510     171       0       0       0       0       0       000010000D     71
     510       0       0       1       1                               0D     72
     514     172       0       0       0       0       0       000010000D     73
     514       0       0       1       1                               0D     74
     186     173       0       0       0       0       0       000000000D     75
     186       0       0       1       0                               0D     76
     110     174       0       0       1       0       0       000000000D     77
     110       0       0       2       0                               0D     78
     110     176       0       0       1       0       0       000000000D     79
     110       0       0       2       0                               0D     80
     110     178       0       0       1       0       0       000000000D     81
     110       0       0       2       0                               0D     82
     110     180       0       0       1       0       0       000000000D     83
     110       0       0       2       0                               0D     84
     110     182       0       0       1       0       0       000000000D     85
     110       0       0       2       0                               0D     86
     110     184       0       0       1       0       0       000000000D     87
     110       0       0       2       0                               0D     88
     110     186       0       0       1       0       0       000000000D     89
     110       0       0       2       0                               0D     90
     110     188       0       0       1       0       0       000000000D     91
     110       0       0       2       0                               0D     92
     110     190       0       0       1       0       0       000000000D     93
     110       0       0       2       0                               0D     94
     110     192       0       0       1       0       0       000000000D     95
     110       0       0       2       0                               0D     96
     110     194       0       0       1       0       0       000000000D     97
     110       0       0       2       0                               0D     98
     110     196       0       0       1       0       0       000000000D     99
     110       0       0       2       0                               0D    100
     110     198       0       0       1       0       0       000000000D    101
     110       0       0       2       0                               0D    102
     110     200       0       0       1       0       0       000000000D    103
     110       0       0       2       0                               0D    104
     110     202       0       0       1       0       0       000000000D    105
     110       0       0       2       0                               0D    106
     110     204       0       0       1       0       0       000000000D    107
     110       0       0       2       0                               0D    108
     110     206       0       0       1       0       0       000000000D    109
     110       0       0       2       0                               0D    110
     110     208       0       0       1       0       0       000000000D    111
     110       0       0       2       0                               0D    112
     110     210       0       0       1       0       0       000000000D    113
     110       0       0       1       0                               0D    114
     110     211       0       0       1       0       0       000000000D    115
     110       0       0       1       0                               0D    116
     110     212       0       0       1       0       0       000000000D    117
     110       0       0       1       0                               0D    118
     110     213       0       0       1       0       0       000000000D    119
     110       0       0       2       0                               0D    120
     110     215       0       0       1       0       0       000000000D    121
     110       0       0       2       0                               0D    122
     110     217       0       0       1       0       0       000000000D    123
     110       0       0       2       0                               0D    124
     110     219       0       0       1       0       0       000000000D    125
     110       0       0       2       0                               0D    126
     110     221       0       0       1       0       0       000000000D    127
     110       0       0       2       0                               0D    128
     110     223       0       0       1       0       0       000000000D    129
     110       0       0       2       0                               0D    130
     110     225       0       0       1       0       0       000000000D    131
     110       0       0       2       0                               0D    132
     110     227       0       0       1       0       0       000000000D    133
     110       0       0       2       0                               0D    134
     110     229       0       0       1       0       0       000000000D    135
     110       0       0       2       0                               0D    136
     110     231       0       0       1       0       0       000000000D    137
     110       0       0       2       0                               0D    138
     110     233       0       0       1       0       0       000000000D    139
     110       0       0       2       0                               0D    140
     110     235       0       0       1       0       0       000000000D    141
     110       0       0       2       0                               0D    142
     110     237       0       0       1       0       0       000000000D    143
     110       0       0       2       0                               0D    144
     110     239       0       0       1       0       0       000000000D    145
     110       0       0       2       0                               0D    146
     110     241       0       0       1       0       0       000000000D    147
     110       0       0       2       0                               0D    148
     110     243       0       0       1       0       0       000000000D    149
     110       0       0       2       0                               0D    150
     110     245       0       0       1       0       0       000000000D    151
     110       0       0       2       0                               0D    152
     110     247       0       0       1       0       0       000000000D    153
     110       0       0       2       0                               0D    154
502,2,31.75,0.,2.48662797560325,31.75,0.,8.683601328862;               1P      1
126,8,2,0,1,0,0,0.,0.,0.,1.5707963267949,1.5707963267949,              3P      2
3.14159265358979,3.14159265358979,4.71238898038469,                    3P      3
4.71238898038469,6.28318530717959,6.28318530717959,                    3P      4
6.28318530717959,1.,0.707106781186548,1.,0.707106781186548,1.,         3P      5
0.707106781186548,1.,0.707106781186548,1.,31.75,0.,                    3P      6
2.48662797560325,31.75,31.75,2.48662797560325,                         3P      7
1.94412679364642D-15,31.75,2.48662797560325,-31.75,31.75,              3P      8
2.48662797560325,-31.75,3.88825358729285D-15,2.48662797560325,         3P      9
-31.75,-31.75,2.48662797560325,-5.83238038093927D-15,-31.75,           3P     10
2.48662797560325,31.75,-31.75,2.48662797560325,31.75,0.,               3P     11
2.48662797560325,0.,6.28318530717959,0.,0.,0.;                         3P     12
126,8,2,0,1,0,0,0.,0.,0.,1.5707963267949,1.5707963267949,              5P     13
3.14159265358979,3.14159265358979,4.71238898038469,                    5P     14
4.71238898038469,6.28318530717959,6.28318530717959,                    5P     15
6.28318530717959,1.,0.707106781186548,1.,0.707106781186548,1.,         5P     16
0.707106781186548,1.,0.707106781186548,1.,31.75,0.,                    5P     17
8.683601328862,31.75,31.75,8.683601328862,1.94412679364642D-15,        5P     18
31.75,8.683601328862,-31.75,31.75,8.683601328862,-31.75,               5P     19
3.88825358729285D-15,8.683601328862,-31.75,-31.75,                     5P     20
8.683601328862,-5.83238038093927D-15,-31.75,8.683601328862,            5P     21
31.75,-31.75,8.683601328862,31.75,0.,8.683601328862,0.,                5P     22
6.28318530717959,0.,0.,0.;                                             5P     23
126,1,1,0,0,1,0,0.,0.,1.,1.,1.,1.,31.75,0.,2.48662797560325,           7P     24
31.75,0.,8.683601328862,0.,1.,0.,0.,0.;                                7P     25
504,3,3,1,1,1,1,5,1,2,1,2,7,1,1,1,2;                                   9P     26
128,4,4,2,2,0,0,0,0,0,0.,0.,0.,0.5,0.5,1.,1.,1.,0.,0.,0.,0.5,         11P     27
0.5,1.,1.,1.,1.,0.707106781186548,1.,0.707106781186548,1.,            11P     28
0.707106781186548,0.5,0.707106781186548,0.5,0.707106781186548,        11P     29
1.,0.707106781186548,1.,0.707106781186548,1.,0.707106781186548,       11P     30
0.5,0.707106781186548,0.5,0.707106781186548,1.,                       11P     31
0.707106781186548,1.,0.707106781186548,1.,-203.94,0.,203.94,          11P     32
-203.94,0.,203.94,-203.94,0.,203.94,-203.94,0.,203.94,-203.94,        11P     33
0.,203.94,-203.94,203.94,203.94,-203.94,203.94,                       11P     34
2.8421709430404D-14,-203.94,1.24877234109056D-14,0.,-203.94,          11P     35
-203.94,2.8421709430404D-14,-203.94,-203.94,203.94,                   11P     36
-1.24877234109056D-14,203.94,203.94,-1.24877234109056D-14,            11P     37
203.94,0.,-1.24877234109056D-14,1.24877234109056D-14,0.,              11P     38
-1.24877234109056D-14,-203.94,0.,-1.24877234109056D-14,-203.94,       11P     39
203.94,203.94,203.94,203.94,203.94,203.94,2.8421709430404D-14,        11P     40
203.94,1.24877234109056D-14,0.,203.94,-203.94,                        11P     41
2.8421709430404D-14,203.94,-203.94,203.94,203.94,0.,203.94,           11P     42
203.94,0.,203.94,203.94,0.,203.94,203.94,0.,203.94,203.94,0.,         11P     43
203.94,0.,1.,0.,1.;                                                   11P     44
508,1,0,9,1,1,0;                                                      13P     45
406,1,1;                                                              15P     46
510,11,1,1,13,0,1,15;                                                 17P     47
128,4,4,2,2,0,0,0,0,0,0.,0.,0.,0.5,0.5,1.,1.,1.,0.,0.,0.,0.5,         19P     48
0.5,1.,1.,1.,1.,0.707106781186548,1.,0.707106781186548,1.,            19P     49
0.707106781186548,0.5,0.707106781186548,0.5,0.707106781186548,        19P     50
1.,0.707106781186548,1.,0.707106781186548,1.,0.707106781186548,       19P     51
0.5,0.707106781186548,0.5,0.707106781186548,1.,                       19P     52
0.707106781186548,1.,0.707106781186548,1.,156.41,0.,-144.47,          19P     53
156.41,0.,-144.47,156.41,0.,-144.47,156.41,0.,-144.47,156.41,0.,      19P     54
-144.47,156.41,156.41,-144.47,156.41,156.41,11.94,156.41,             19P     55
9.57735029273188D-15,11.94,156.41,-156.41,11.94,156.41,-156.41,       19P     56
-144.47,9.57735029273188D-15,156.41,-144.47,                          19P     57
9.57735029273188D-15,156.41,11.94,9.57735029273188D-15,               19P     58
9.57735029273188D-15,11.94,9.57735029273188D-15,-156.41,11.94,        19P     59
9.57735029273188D-15,-156.41,-144.47,-156.41,156.41,-144.47,          19P     60
-156.41,156.41,11.94,-156.41,9.57735029273188D-15,11.94,-156.41,      19P     61
-156.41,11.94,-156.41,-156.41,-144.47,-156.41,0.,-144.47,             19P     62
-156.41,0.,-144.47,-156.41,0.,-144.47,-156.41,0.,-144.47,             19P     63
-156.41,0.,-144.47,0.,1.,0.,1.;                                       19P     64
508,1,0,9,2,0,0;                                                      21P     65
406,1,2;                                                              23P     66
510,19,1,1,21,0,1,23;                                                 25P     67
128,8,1,2,1,1,0,0,0,0,0.,0.,0.,0.25,0.25,0.5,0.5,0.75,0.75,1.,        27P     68
1.,1.,0.,0.,1.,1.,1.,0.707106781186548,1.,0.707106781186548,1.,       27P     69
0.707106781186548,1.,0.707106781186548,1.,1.,0.707106781186548,       27P     70
1.,0.707106781186548,1.,0.707106781186548,1.,0.707106781186548,       27P     71
1.,31.75,0.,2.48662797560325,31.75,-31.75,2.48662797560325,           27P     72
-5.83238038093927D-15,-31.75,2.48662797560325,-31.75,-31.75,          27P     73
2.48662797560325,-31.75,3.88825358729285D-15,2.48662797560325,        27P     74
-31.75,31.75,2.48662797560325,1.94412679364642D-15,31.75,             27P     75
2.48662797560325,31.75,31.75,2.48662797560325,31.75,0.,               27P     76
2.48662797560325,31.75,0.,8.683601328862,31.75,-31.75,                27P     77
8.683601328862,-5.83238038093927D-15,-31.75,8.683601328862,           27P     78
-31.75,-31.75,8.683601328862,-31.75,3.88825358729285D-15,             27P     79
8.683601328862,-31.75,31.75,8.683601328862,1.94412679364642D-15,      27P     80
31.75,8.683601328862,31.75,31.75,8.683601328862,31.75,0.,             27P     81
8.683601328862,0.,1.,0.,1.;                                           27P     82
508,4,0,9,3,0,0,0,9,1,0,0,0,9,3,1,0,0,9,2,1,0;                        29P     83
406,1,0;                                                              31P     84
510,27,1,1,29,0,1,31;                                                 33P     85
514,3,17,1,25,1,33,1;                                                 35P     86
186,35,0,0;                                                           37P     87
502,2,31.75,0.,8.683601328862,31.75,0.,19.9144252610444;              39P     88
126,8,2,0,1,0,0,0.,0.,0.,1.5707963267949,1.5707963267949,             41P     89
3.14159265358979,3.14159265358979,4.71238898038469,                   41P     90
4.71238898038469,6.28318530717959,6.28318530717959,                   41P     91
6.28318530717959,1.,0.707106781186548,1.,0.707106781186548,1.,        41P     92
0.707106781186548,1.,0.707106781186548,1.,31.75,0.,                   41P     93
8.683601328862,31.75,31.75,8.683601328862,1.94412679364642D-15,       41P     94
31.75,8.683601328862,-31.75,31.75,8.683601328862,-31.75,              41P     95
3.88825358729285D-15,8.683601328862,-31.75,-31.75,                    41P     96
8.683601328862,-5.83238038093927D-15,-31.75,8.683601328862,           41P     97
31.75,-31.75,8.683601328862,31.75,0.,8.683601328862,0.,               41P     98
6.28318530717959,0.,0.,0.;                                            41P     99
126,8,2,0,1,0,0,0.,0.,0.,1.5707963267949,1.5707963267949,             43P    100
3.14159265358979,3.14159265358979,4.71238898038469,                   43P    101
4.71238898038469,6.28318530717959,6.28318530717959,                   43P    102
6.28318530717959,1.,0.707106781186548,1.,0.707106781186548,1.,        43P    103
0.707106781186548,1.,0.707106781186548,1.,31.75,0.,                   43P    104
19.9144252610444,31.75,31.75,19.9144252610444,                        43P    105
1.94412679364642D-15,31.75,19.9144252610444,-31.75,31.75,             43P    106
19.9144252610444,-31.75,3.88825358729285D-15,19.9144252610444,        43P    107
-31.75,-31.75,19.9144252610444,-5.83238038093927D-15,-31.75,          43P    108
19.9144252610444,31.75,-31.75,19.9144252610444,31.75,0.,              43P    109
19.9144252610444,0.,6.28318530717959,0.,0.,0.;                        43P    110
126,1,1,0,0,1,0,0.,0.,1.,1.,1.,1.,31.75,0.,8.683601328862,31.75,      45P    111
0.,19.9144252610444,0.,1.,0.,0.,0.;                                   45P    112
504,3,41,39,1,39,1,43,39,2,39,2,45,39,1,39,2;                         47P    113
128,4,4,2,2,0,0,0,0,0,0.,0.,0.,0.5,0.5,1.,1.,1.,0.,0.,0.,0.5,         49P    114
0.5,1.,1.,1.,1.,0.707106781186548,1.,0.707106781186548,1.,            49P    115
0.707106781186548,0.5,0.707106781186548,0.5,0.707106781186548,        49P    116
1.,0.707106781186548,1.,0.707106781186548,1.,0.707106781186548,       49P    117
0.5,0.707106781186548,0.5,0.707106781186548,1.,                       49P    118
0.707106781186548,1.,0.707106781186548,1.,156.41,0.,-144.47,          49P    119
156.41,0.,-144.47,156.41,0.,-144.47,156.41,0.,-144.47,156.41,0.,      49P    120
-144.47,156.41,-156.41,-144.47,156.41,-156.41,11.94,156.41,           49P    121
9.57735029273188D-15,11.94,156.41,156.41,11.94,156.41,156.41,         49P    122
-144.47,9.57735029273188D-15,-156.41,-144.47,                         49P    123
9.57735029273188D-15,-156.41,11.94,9.57735029273188D-15,              49P    124
9.57735029273188D-15,11.94,9.57735029273188D-15,156.41,11.94,         49P    125
9.57735029273188D-15,156.41,-144.47,-156.41,-156.41,-144.47,          49P    126
-156.41,-156.41,11.94,-156.41,9.57735029273188D-15,11.94,             49P    127
-156.41,156.41,11.94,-156.41,156.41,-144.47,-156.41,0.,-144.47,       49P    128
-156.41,0.,-144.47,-156.41,0.,-144.47,-156.41,0.,-144.47,             49P    129
-156.41,0.,-144.47,0.,1.,0.,1.;                                       49P    130
508,1,0,47,1,1,0;                                                     51P    131
406,1,1;                                                              53P    132
510,49,1,1,51,0,1,53;                                                 55P    133
128,4,4,2,2,0,0,0,0,0,0.,0.,0.,0.5,0.5,1.,1.,1.,0.,0.,0.,0.5,         57P    134
0.5,1.,1.,1.,1.,0.707106781186548,1.,0.707106781186548,1.,            57P    135
0.707106781186548,0.5,0.707106781186548,0.5,0.707106781186548,        57P    136
1.,0.707106781186548,1.,0.707106781186548,1.,0.707106781186548,       57P    137
0.5,0.707106781186548,0.5,0.707106781186548,1.,                       57P    138
0.707106781186548,1.,0.707106781186548,1.,569.6,0.,-548.8,569.6,      57P    139
0.,-548.8,569.6,0.,-548.8,569.6,0.,-548.8,569.6,0.,-548.8,569.6,      57P    140
569.6,-548.8,569.6,569.6,20.7999999999999,569.6,                      57P    141
3.48779408397166D-14,20.8,569.6,-569.6,20.7999999999999,569.6,        57P    142
-569.6,-548.8,3.48779408397166D-14,569.6,-548.8,                      57P    143
3.48779408397166D-14,569.6,20.8,3.48779408397166D-14,                 57P    144
3.48779408397166D-14,20.8,3.48779408397166D-14,-569.6,20.8,           57P    145
3.48779408397166D-14,-569.6,-548.8,-569.6,569.6,-548.8,-569.6,        57P    146
569.6,20.7999999999999,-569.6,3.48779408397166D-14,20.8,-569.6,       57P    147
-569.6,20.7999999999999,-569.6,-569.6,-548.8,-569.6,0.,-548.8,        57P    148
-569.6,0.,-548.8,-569.6,0.,-548.8,-569.6,0.,-548.8,-569.6,0.,         57P    149
-548.8,0.,1.,0.,1.;                                                   57P    150
508,1,0,47,2,0,0;                                                     59P    151
406,1,2;                                                              61P    152
510,57,1,1,59,0,1,61;                                                 63P    153
128,8,1,2,1,1,0,0,0,0,0.,0.,0.,0.25,0.25,0.5,0.5,0.75,0.75,1.,        65P    154
1.,1.,0.,0.,1.,1.,1.,0.707106781186548,1.,0.707106781186548,1.,       65P    155
0.707106781186548,1.,0.707106781186548,1.,1.,0.707106781186548,       65P    156
1.,0.707106781186548,1.,0.707106781186548,1.,0.707106781186548,       65P    157
1.,31.75,0.,8.683601328862,31.75,-31.75,8.683601328862,               65P    158
-5.83238038093927D-15,-31.75,8.683601328862,-31.75,-31.75,            65P    159
8.683601328862,-31.75,3.88825358729285D-15,8.683601328862,            65P    160
-31.75,31.75,8.683601328862,1.94412679364642D-15,31.75,               65P    161
8.683601328862,31.75,31.75,8.683601328862,31.75,0.,                   65P    162
8.683601328862,31.75,0.,19.9144252610444,31.75,-31.75,                65P    163
19.9144252610444,-5.83238038093927D-15,-31.75,19.9144252610444,       65P    164
-31.75,-31.75,19.9144252610444,-31.75,3.88825358729285D-15,           65P    165
19.9144252610444,-31.75,31.75,19.9144252610444,                       65P    166
1.94412679364642D-15,31.75,19.9144252610444,31.75,31.75,              65P    167
19.9144252610444,31.75,0.,19.9144252610444,0.,1.,0.,1.;               65P    168
508,4,0,47,3,0,0,0,47,1,0,0,0,47,3,1,0,0,47,2,1,0;                    67P    169
406,1,0;                                                              69P    170
510,65,1,1,67,0,1,69;                                                 71P    171
514,3,55,1,63,1,71,1;                                                 73P    172
186,73,0,0;                                                           75P    173
110,-31.7499999988041,0.,2.48662797541477,-31.4144495914334,0.,       77P    174
8.75278047623104;                                                     77P    175
110,-31.4144495914334,0.,8.75278047623104,-31.0471127181905,0.,       79P    176
19.953230137521;                                                      79P    177
110,-31.0471127181905,0.,19.953230137521,0.0011545972379885,0.,       81P    178
365.328119615515;                                                     81P    179
110,-26.4583333324118,0.,1.72358079208556,-26.1013454873838,0.,       83P    180
9.74675610564577;                                                     83P    181
110,-26.1013454873838,0.,9.74675610564577,-25.814579488084,0.,        85P    182
20.214733979581;                                                      85P    183
110,-25.814579488084,0.,20.214733979581,0.00377821897781772,0.,       87P    184
365.328119615515;                                                     87P    185
110,-21.1666666659894,0.,1.10140450532869,-20.8312565066049,0.,       89P    186
10.5466018604331;                                                     89P    187
110,-20.8312565066049,0.,10.5466018604331,-20.6143388754363,0.,       91P    188
20.4268519955192;                                                     91P    189
110,-20.6143388754363,0.,20.4268519955192,0.00317638422068001,        93P    190
0.,365.328119615515;                                                  93P    191
110,-15.8749999995371,0.,0.618805888282523,-15.5947516845805,0.,      95P    192
11.160626227283;                                                      95P    193
110,-15.5947516845805,0.,11.160626227283,-15.4392736026979,0.,        97P    194
20.5907171974452;                                                     97P    195
110,-15.4392736026979,0.,20.5907171974452,0.00173237271468452,        99P    196
0.,365.328119615515;                                                  99P    197
110,-10.5833333330547,0.,0.274792722071813,-10.3829685360043,0.,     101P    198
11.5949930778211;                                                    101P    199
110,-10.3829685360043,0.,11.5949930778211,-10.2827218488265,0.,      103P    200
20.7071778576453;                                                    103P    201
110,-10.2827218488265,0.,20.7071778576453,0.000594015253465585,      105P    202
0.,365.328119615515;                                                 105P    203
110,-5.29166666654237,0.,0.0686634568503046,-5.18745003083186,       107P    204
0.,11.8539535777471;                                                 107P    205
110,-5.18745003083186,0.,11.8539535777471,-5.13834270453321,0.,      109P    206
20.7768231189282;                                                    109P    207
110,-5.13834270453321,0.,20.7768231189282,8.01933884204686D-5,       111P    208
0.,365.328119615515;                                                 111P    209
110,0.,0.,0.,0.,0.,11.94;                                            113P    210
110,0.,0.,11.94,0.,0.,20.8;                                          115P    211
110,0.,0.,20.8,0.,0.,365.328119615515;                               117P    212
110,5.29166666657236,0.,0.0686634568510832,5.18745003086128,0.,      119P    213
11.8539535777461;                                                    119P    214
110,5.18745003086128,0.,11.8539535777461,5.13834270456235,0.,        121P    215
20.7768231189279;                                                    121P    216
110,5.13834270456235,0.,20.7768231189279,-8.01933884204686D-5,       123P    217
0.,365.328119615515;                                                 123P    218
110,10.5833333331747,0.,0.274792722078049,10.3829685361222,0.,       125P    219
11.5949930778132;                                                    125P    220
110,10.3829685361222,0.,11.5949930778132,10.2827218489433,0.,        127P    221
20.7071778576432;                                                    127P    222
110,10.2827218489433,0.,20.7071778576432,-0.000594015253472691,      129P    223
0.,365.328119615515;                                                 129P    224
110,15.8749999998071,0.,0.618805888303607,15.594751684847,0.,        131P    225
11.1606262272563;                                                    131P    226
110,15.594751684847,0.,11.1606262272563,15.4392736029614,0.,         133P    227
20.5907171974381;                                                    133P    228
110,15.4392736029614,0.,20.5907171974381,-0.00173237271477689,       135P    229
0.,365.328119615515;                                                 135P    230
110,21.1666666664695,0.,1.10140450537879,20.8312565070813,0.,        137P    231
10.5466018603691;                                                    137P    232
110,20.8312565070813,0.,10.5466018603691,20.6143388759068,0.,        139P    233
20.4268519955021;                                                    139P    234
110,20.6143388759068,0.,20.4268519955021,-0.00317638422081501,       141P    235
0.,365.328119615515;                                                 141P    236
110,26.4583333331619,0.,1.72358079218371,26.1013454881336,0.,        143P    237
9.74675610551885;                                                    143P    238
110,26.1013454881336,0.,9.74675610551885,25.8145794888233,0.,        145P    239
20.2147339795475;                                                    145P    240
110,25.8145794888233,0.,20.2147339795475,-0.00377821897777508,       147P    241
0.,365.328119615515;                                                 147P    242
110,31.7499999998843,0.,2.48662797558501,31.414449592523,0.,         149P    243
8.75278047600765;                                                    149P    244
110,31.414449592523,0.,8.75278047600765,31.0471127192624,0.,         151P    245
19.9532301374625;                                                    151P    246
110,31.0471127192624,0.,19.9532301374625,-0.00115459723692268,       153P    247
0.,365.328119615515;                                                 153P    248
S      1G      5D    154P    248                                        T      1
