                                                                        S      1
1H,,1H;,60HC:\Users\dand\Desktop\temp\ExportCad\doublets\IGES_65553.IGS,G      1
60HC:\Users\dand\Desktop\temp\ExportCad\doublets\IGES_65553.IGS,23HHarmoG      2
nyWare Translators,23HHarmonyWare IGES v2.0.2,32,38,6,308,15,,1.,2,2HMM,G      3
1,1.,15H20161213.151622,0.0001,45.8700000000001,,,11,0,15H20161213.15162G      4
2;                                                                      G      5
     502       1       0       0       0       0       0       000010000D      1
     502       0       0       1       1                               0D      2
     126       2       0       0       0       0       0       000010000D      3
     126       0       0      11       0                               0D      4
     126      13       0       0       0       0       0       000010000D      5
     126       0       0      11       0                               0D      6
     126      24       0       0       0       0       0       000010000D      7
     126       0       0       2       0                               0D      8
     504      26       0       0       0       0       0       000010000D      9
     504       0       0       1       1                               0D     10
     128      27       0       0       0       0       0       000010000D     11
     128       0       0      18       0                               0D     12
     508      45       0       0       0       0       0       000010000D     13
     508       0       0       1       1                               0D     14
     406      46       0       0       0       0       0       000000000D     15
     406       0       0       1    7223                               0D     16
     510      47       0       0       0       0       0       000010000D     17
     510       0       0       1       1                               0D     18
     128      48       0       0       0       0       0       000010000D     19
     128       0       0      16       0                               0D     20
     508      64       0       0       0       0       0       000010000D     21
     508       0       0       1       1                               0D     22
     406      65       0       0       0       0       0       000000000D     23
     406       0       0       1    7223                               0D     24
     510      66       0       0       0       0       0       000010000D     25
     510       0       0       1       1                               0D     26
     128      67       0       0       0       0       0       000010000D     27
     128       0       0      15       0                               0D     28
     508      82       0       0       0       0       0       000010000D     29
     508       0       0       1       1                               0D     30
     406      83       0       0       0       0       0       000000000D     31
     406       0       0       1    7223                               0D     32
     510      84       0       0       0       0       0       000010000D     33
     510       0       0       1       1                               0D     34
     514      85       0       0       0       0       0       000010000D     35
     514       0       0       1       1                               0D     36
     186      86       0       0       0       0       0       000000000D     37
     186       0       0       1       0                               0D     38
     502      87       0       0       0       0       0       000010000D     39
     502       0       0       1       1                               0D     40
     126      88       0       0       0       0       0       000010000D     41
     126       0       0      11       0                               0D     42
     126      99       0       0       0       0       0       000010000D     43
     126       0       0      11       0                               0D     44
     126     110       0       0       0       0       0       000010000D     45
     126       0       0       2       0                               0D     46
     504     112       0       0       0       0       0       000010000D     47
     504       0       0       1       1                               0D     48
     128     113       0       0       0       0       0       000010000D     49
     128       0       0      16       0                               0D     50
     508     129       0       0       0       0       0       000010000D     51
     508       0       0       1       1                               0D     52
     406     130       0       0       0       0       0       000000000D     53
     406       0       0       1    7223                               0D     54
     510     131       0       0       0       0       0       000010000D     55
     510       0       0       1       1                               0D     56
     128     132       0       0       0       0       0       000010000D     57
     128       0       0      17       0                               0D     58
     508     149       0       0       0       0       0       000010000D     59
     508       0       0       1       1                               0D     60
     406     150       0       0       0       0       0       000000000D     61
     406       0       0       1    7223                               0D     62
     510     151       0       0       0       0       0       000010000D     63
     510       0       0       1       1                               0D     64
     128     152       0       0       0       0       0       000010000D     65
     128       0       0      15       0                               0D     66
     508     167       0       0       0       0       0       000010000D     67
     508       0       0       1       1                               0D     68
     406     168       0       0       0       0       0       000000000D     69
     406       0       0       1    7223                               0D     70
     510     169       0       0       0       0       0       000010000D     71
     510       0       0       1       1                               0D     72
     514     170       0       0       0       0       0       000010000D     73
     514       0       0       1       1                               0D     74
     186     171       0       0       0       0       0       000000000D     75
     186       0       0       1       0                               0D     76
502,2,12.5,0.,4.74069455997213,12.5,0.,7.43101001514053;               1P      1
126,8,2,0,1,0,0,0.,0.,0.,1.5707963267949,1.5707963267949,              3P      2
3.14159265358979,3.14159265358979,4.71238898038469,                    3P      3
4.71238898038469,6.28318530717959,6.28318530717959,                    3P      4
6.28318530717959,1.,0.707106781186548,1.,0.707106781186548,1.,         3P      5
0.707106781186548,1.,0.707106781186548,1.,12.5,0.,                     3P      6
4.74069455997213,12.5,12.5,4.74069455997213,                           3P      7
7.65404249467096D-16,12.5,4.74069455997213,-12.5,12.5,                 3P      8
4.74069455997213,-12.5,1.53080849893419D-15,4.74069455997213,          3P      9
-12.5,-12.5,4.74069455997213,-2.29621274840129D-15,-12.5,              3P     10
4.74069455997213,12.5,-12.5,4.74069455997213,12.5,0.,                  3P     11
4.74069455997213,0.,6.28318530717959,0.,0.,0.;                         3P     12
126,8,2,0,1,0,0,0.,0.,0.,1.5707963267949,1.5707963267949,              5P     13
3.14159265358979,3.14159265358979,4.71238898038469,                    5P     14
4.71238898038469,6.28318530717959,6.28318530717959,                    5P     15
6.28318530717959,1.,0.707106781186548,1.,0.707106781186548,1.,         5P     16
0.707106781186548,1.,0.707106781186548,1.,12.5,0.,                     5P     17
7.43101001514053,12.5,12.5,7.43101001514053,                           5P     18
7.65404249467096D-16,12.5,7.43101001514053,-12.5,12.5,                 5P     19
7.43101001514053,-12.5,1.53080849893419D-15,7.43101001514053,          5P     20
-12.5,-12.5,7.43101001514053,-2.29621274840129D-15,-12.5,              5P     21
7.43101001514053,12.5,-12.5,7.43101001514053,12.5,0.,                  5P     22
7.43101001514053,0.,6.28318530717959,0.,0.,0.;                         5P     23
126,1,1,0,0,1,0,0.,0.,1.,1.,1.,1.,12.5,0.,4.74069455997213,12.5,       7P     24
0.,7.43101001514053,0.,1.,0.,0.,0.;                                    7P     25
504,3,3,1,1,1,1,5,1,2,1,2,7,1,1,1,2;                                   9P     26
128,4,4,2,2,0,0,0,0,0,0.,0.,0.,0.5,0.5,1.,1.,1.,0.,0.,0.,0.5,         11P     27
0.5,1.,1.,1.,1.,0.707106781186548,1.,0.707106781186548,1.,            11P     28
0.707106781186548,0.5,0.707106781186548,0.5,0.707106781186548,        11P     29
1.,0.707106781186548,1.,0.707106781186548,1.,0.707106781186548,       11P     30
0.5,0.707106781186548,0.5,0.707106781186548,1.,                       11P     31
0.707106781186548,1.,0.707106781186548,1.,-18.85,0.,18.85,            11P     32
-18.85,0.,18.85,-18.85,0.,18.85,-18.85,0.,18.85,-18.85,0.,18.85,      11P     33
-18.85,18.85,18.85,-18.85,18.85,1.18573830717036D-14,-18.85,          11P     34
2.20976259433639D-14,0.,-18.85,-18.85,-1.36337399111038D-14,          11P     35
-18.85,-18.85,18.85,1.33750583857197D-14,18.85,18.85,                 11P     36
7.0969274850006D-15,18.85,8.30466939290306D-15,                       11P     37
-1.6771651195743D-16,7.72755458880487D-15,3.5527136788005D-15,        11P     38
-7.43236050891545D-15,-18.85,-2.97559887470231D-15,                   11P     39
-1.15422960819638D-15,-18.85,18.85,18.85,18.85,18.85,18.85,           11P     40
18.85,1.19924203530206D-15,18.85,-6.64251676575415D-15,               11P     41
3.5527136788005D-15,18.85,-18.85,4.12982848289869D-15,18.85,          11P     42
-18.85,18.85,18.85,0.,18.85,18.85,0.,18.85,18.85,0.,18.85,18.85,      11P     43
0.,18.85,18.85,0.,18.85,0.,1.,0.,1.;                                  11P     44
508,1,0,9,1,1,0;                                                      13P     45
406,1,1;                                                              15P     46
510,11,1,1,13,0,1,15;                                                 17P     47
128,4,4,2,2,0,0,0,0,0,0.,0.,0.,0.5,0.5,1.,1.,1.,0.,0.,0.,0.5,         19P     48
0.5,1.,1.,1.,1.,0.707106781186548,1.,0.707106781186548,1.,            19P     49
0.707106781186548,0.5,0.707106781186548,0.5,0.707106781186548,        19P     50
1.,0.707106781186548,1.,0.707106781186548,1.,0.707106781186548,       19P     51
0.5,0.707106781186548,0.5,0.707106781186548,1.,                       19P     52
0.707106781186548,1.,0.707106781186548,1.,13.84,0.,1.49,13.84,        19P     53
0.,1.49,13.84,0.,1.49,13.84,0.,1.49,13.84,0.,1.49,13.84,13.84,        19P     54
1.48999999999999,13.84,13.84,15.33,13.84,1.05564275858451D-14,        19P     55
15.33,13.84,-13.84,15.33,13.84,-13.84,1.49,                           19P     56
-6.41718841194805D-15,13.84,1.49,3.92952931339379D-16,13.84,          19P     57
15.33,4.02527492981839D-15,1.81707967409041D-15,15.33,                19P     58
7.6575969282974D-15,-13.84,15.33,8.47455585009969D-16,-13.84,         19P     59
1.49,-13.84,13.84,1.49000000000001,-13.84,13.84,15.33,-13.84,         19P     60
-1.04749819164648D-14,15.33,-13.84,-13.84,15.33,-13.84,-13.84,        19P     61
1.49,-13.84,0.,1.49,-13.84,0.,1.49,-13.84,0.,1.49,-13.84,0.,          19P     62
1.49,-13.84,0.,1.49,0.,1.,0.,1.;                                      19P     63
508,1,0,9,2,0,0;                                                      21P     64
406,1,2;                                                              23P     65
510,19,1,1,21,0,1,23;                                                 25P     66
128,8,1,2,1,1,0,0,0,0,0.,0.,0.,0.25,0.25,0.5,0.5,0.75,0.75,1.,        27P     67
1.,1.,0.,0.,1.,1.,1.,0.707106781186548,1.,0.707106781186548,1.,       27P     68
0.707106781186548,1.,0.707106781186548,1.,1.,0.707106781186548,       27P     69
1.,0.707106781186548,1.,0.707106781186548,1.,0.707106781186548,       27P     70
1.,12.5,0.,4.74069455997213,12.5,-12.5,4.74069455997213,              27P     71
-4.73870340257663D-15,-12.5,4.74069455997213,-12.5,-12.5,             27P     72
4.74069455997213,-12.5,5.97170059743482D-15,4.74069455997213,         27P     73
-12.5,12.5,4.74069455997213,2.76380569379238D-15,12.5,                27P     74
4.74069455997213,12.5,12.5,4.74069455997213,12.5,0.,                  27P     75
4.74069455997213,12.5,0.,7.43101001514053,12.5,-12.5,                 27P     76
7.43101001514053,-4.73870340257663D-15,-12.5,7.43101001514053,        27P     77
-12.5,-12.5,7.43101001514053,-12.5,5.97170059743482D-15,              27P     78
7.43101001514053,-12.5,12.5,7.43101001514053,                         27P     79
2.76380569379238D-15,12.5,7.43101001514053,12.5,12.5,                 27P     80
7.43101001514053,12.5,0.,7.43101001514053,0.,1.,0.,1.;                27P     81
508,4,0,9,3,0,0,0,9,1,0,0,0,9,3,1,0,0,9,2,1,0;                        29P     82
406,1,0;                                                              31P     83
510,27,1,1,29,0,1,31;                                                 33P     84
514,3,17,1,25,1,33,1;                                                 35P     85
186,35,0,0;                                                           37P     86
502,2,12.5,0.,7.43101001514053,12.5,0.,18.4124081724573;              39P     87
126,8,2,0,1,0,0,0.,0.,0.,1.5707963267949,1.5707963267949,             41P     88
3.14159265358979,3.14159265358979,4.71238898038469,                   41P     89
4.71238898038469,6.28318530717959,6.28318530717959,                   41P     90
6.28318530717959,1.,0.707106781186548,1.,0.707106781186548,1.,        41P     91
0.707106781186548,1.,0.707106781186548,1.,12.5,0.,                    41P     92
7.43101001514053,12.5,12.5,7.43101001514053,                          41P     93
7.65404249467096D-16,12.5,7.43101001514053,-12.5,12.5,                41P     94
7.43101001514053,-12.5,1.53080849893419D-15,7.43101001514053,         41P     95
-12.5,-12.5,7.43101001514053,-2.29621274840129D-15,-12.5,             41P     96
7.43101001514053,12.5,-12.5,7.43101001514053,12.5,0.,                 41P     97
7.43101001514053,0.,6.28318530717959,0.,0.,0.;                        41P     98
126,8,2,0,1,0,0,0.,0.,0.,1.5707963267949,1.5707963267949,             43P     99
3.14159265358979,3.14159265358979,4.71238898038469,                   43P    100
4.71238898038469,6.28318530717959,6.28318530717959,                   43P    101
6.28318530717959,1.,0.707106781186548,1.,0.707106781186548,1.,        43P    102
0.707106781186548,1.,0.707106781186548,1.,12.5,0.,                    43P    103
18.4124081724573,12.5,12.5,18.4124081724573,                          43P    104
7.65404249467096D-16,12.5,18.4124081724573,-12.5,12.5,                43P    105
18.4124081724573,-12.5,1.53080849893419D-15,18.4124081724573,         43P    106
-12.5,-12.5,18.4124081724573,-2.29621274840129D-15,-12.5,             43P    107
18.4124081724573,12.5,-12.5,18.4124081724573,12.5,0.,                 43P    108
18.4124081724573,0.,6.28318530717959,0.,0.,0.;                        43P    109
126,1,1,0,0,1,0,0.,0.,1.,1.,1.,1.,12.5,0.,7.43101001514053,12.5,      45P    110
0.,18.4124081724573,0.,1.,0.,0.,0.;                                   45P    111
504,3,41,39,1,39,1,43,39,2,39,2,45,39,1,39,2;                         47P    112
128,4,4,2,2,0,0,0,0,0,0.,0.,0.,0.5,0.5,1.,1.,1.,0.,0.,0.,0.5,         49P    113
0.5,1.,1.,1.,1.,0.707106781186548,1.,0.707106781186548,1.,            49P    114
0.707106781186548,0.5,0.707106781186548,0.5,0.707106781186548,        49P    115
1.,0.707106781186548,1.,0.707106781186548,1.,0.707106781186548,       49P    116
0.5,0.707106781186548,0.5,0.707106781186548,1.,                       49P    117
0.707106781186548,1.,0.707106781186548,1.,13.84,0.,1.49,13.84,        49P    118
0.,1.49,13.84,0.,1.49,13.84,0.,1.49,13.84,0.,1.49,13.84,-13.84,       49P    119
1.48999999999999,13.84,-13.84,15.33,13.84,-7.26128564875767D-15,      49P    120
15.33,13.84,13.84,15.33,13.84,13.84,1.49,-6.41718841194805D-15,       49P    121
-13.84,1.49000000000001,3.9295293133938D-16,-13.84,15.33,             49P    122
4.02527492981839D-15,3.25441910239731D-15,15.33,                      49P    123
7.6575969282974D-15,13.84,15.33,8.47455585009969D-16,13.84,1.49,      49P    124
-13.84,-13.84,1.49000000000002,-13.84,-13.84,15.33,-13.84,            49P    125
1.37701238535523D-14,15.33,-13.84,13.84,15.33,-13.84,13.84,1.49,      49P    126
-13.84,0.,1.49,-13.84,0.,1.49,-13.84,0.,1.49,-13.84,0.,1.49,          49P    127
-13.84,0.,1.49,0.,1.,0.,1.;                                           49P    128
508,1,0,47,1,1,0;                                                     51P    129
406,1,1;                                                              53P    130
510,49,1,1,51,0,1,53;                                                 55P    131
128,4,4,2,2,0,0,0,0,0,0.,0.,0.,0.5,0.5,1.,1.,1.,0.,0.,0.,0.5,         57P    132
0.5,1.,1.,1.,1.,0.707106781186547,1.,0.707106781186547,1.,            57P    133
0.707106781186548,0.5,0.707106781186548,0.5,0.707106781186548,        57P    134
1.,0.707106781186547,1.,0.707106781186547,1.,0.707106781186548,       57P    135
0.5,0.707106781186548,0.5,0.707106781186548,1.,                       57P    136
0.707106781186547,1.,0.707106781186547,1.,41.7,0.,-21.37,41.7,        57P    137
0.,-21.37,41.7,0.,-21.37,41.7,0.,-21.37,41.7,0.,-21.37,41.7,          57P    138
41.7,-21.3700000000001,41.7,41.7000000000001,20.33,41.7,              57P    139
2.66232725109269D-14,20.33,41.7,-41.7,20.33,41.7,-41.7,-21.37,        57P    140
2.55338857622224D-15,41.7,-21.3700000000001,                          57P    141
2.55338857622224D-15,41.7000000000001,20.33,                          57P    142
2.55338857622223D-15,2.66232725109269D-14,20.33,                      57P    143
2.55338857622223D-15,-41.7,20.33,2.55338857622223D-15,-41.7,          57P    144
-21.37,-41.7,41.7,-21.3700000000001,-41.7,41.7000000000001,           57P    145
20.33,-41.7,2.66232725109269D-14,20.33,-41.7,-41.7,20.33,-41.7,       57P    146
-41.7,-21.37,-41.7,0.,-21.37,-41.7,0.,-21.37,-41.7,0.,-21.37,         57P    147
-41.7,0.,-21.37,-41.7,0.,-21.37,0.,1.,0.,1.;                          57P    148
508,1,0,47,2,0,0;                                                     59P    149
406,1,2;                                                              61P    150
510,57,1,1,59,0,1,61;                                                 63P    151
128,8,1,2,1,1,0,0,0,0,0.,0.,0.,0.25,0.25,0.5,0.5,0.75,0.75,1.,        65P    152
1.,1.,0.,0.,1.,1.,1.,0.707106781186548,1.,0.707106781186548,1.,       65P    153
0.707106781186548,1.,0.707106781186548,1.,1.,0.707106781186548,       65P    154
1.,0.707106781186548,1.,0.707106781186548,1.,0.707106781186548,       65P    155
1.,12.5,0.,7.43101001514053,12.5,-12.5,7.43101001514053,              65P    156
-4.73870340257663D-15,-12.5,7.43101001514053,-12.5,-12.5,             65P    157
7.43101001514053,-12.5,5.97170059743482D-15,7.43101001514053,         65P    158
-12.5,12.5,7.43101001514053,2.76380569379238D-15,12.5,                65P    159
7.43101001514053,12.5,12.5,7.43101001514053,12.5,0.,                  65P    160
7.43101001514053,12.5,0.,18.4124081724573,12.5,-12.5,                 65P    161
18.4124081724573,-4.73870340257663D-15,-12.5,18.4124081724573,        65P    162
-12.5,-12.5,18.4124081724573,-12.5,5.97170059743482D-15,              65P    163
18.4124081724573,-12.5,12.5,18.4124081724573,                         65P    164
2.76380569379238D-15,12.5,18.4124081724573,12.5,12.5,                 65P    165
18.4124081724573,12.5,0.,18.4124081724573,0.,1.,0.,1.;                65P    166
508,4,0,47,3,0,0,0,47,1,0,0,0,47,3,1,0,0,47,2,1,0;                    67P    167
406,1,0;                                                              69P    168
510,65,1,1,67,0,1,69;                                                 71P    169
514,3,55,1,63,1,71,1;                                                 73P    170
186,73,0,0;                                                           75P    171
S      1G      5D     76P    171                                        T      1
