                                                                        S      1
1H,,1H;,60HC:\Users\dand\Desktop\temp\ExportCad\doublets\IGES_32321.IGS,G      1
60HC:\Users\dand\Desktop\temp\ExportCad\doublets\IGES_32321.IGS,23HHarmoG      2
nyWare Translators,23HHarmonyWare IGES v2.0.2,32,38,6,308,15,,1.,2,2HMM,G      3
1,1.,15H20161213.151223,0.0001,168.234,,,11,0,15H20161213.151223;       G      4
     502       1       0       0       0       0       0       000010000D      1
     502       0       0       1       1                               0D      2
     126       2       0       0       0       0       0       000010000D      3
     126       0       0      11       0                               0D      4
     126      13       0       0       0       0       0       000010000D      5
     126       0       0      11       0                               0D      6
     126      24       0       0       0       0       0       000010000D      7
     126       0       0       2       0                               0D      8
     504      26       0       0       0       0       0       000010000D      9
     504       0       0       1       1                               0D     10
     128      27       0       0       0       0       0       000010000D     11
     128       0       0      19       0                               0D     12
     508      46       0       0       0       0       0       000010000D     13
     508       0       0       1       1                               0D     14
     406      47       0       0       0       0       0       000000000D     15
     406       0       0       1    7223                               0D     16
     510      48       0       0       0       0       0       000010000D     17
     510       0       0       1       1                               0D     18
     128      49       0       0       0       0       0       000010000D     19
     128       0       0      20       0                               0D     20
     508      69       0       0       0       0       0       000010000D     21
     508       0       0       1       1                               0D     22
     406      70       0       0       0       0       0       000000000D     23
     406       0       0       1    7223                               0D     24
     510      71       0       0       0       0       0       000010000D     25
     510       0       0       1       1                               0D     26
     128      72       0       0       0       0       0       000010000D     27
     128       0       0      15       0                               0D     28
     508      87       0       0       0       0       0       000010000D     29
     508       0       0       1       1                               0D     30
     406      88       0       0       0       0       0       000000000D     31
     406       0       0       1    7223                               0D     32
     510      89       0       0       0       0       0       000010000D     33
     510       0       0       1       1                               0D     34
     514      90       0       0       0       0       0       000010000D     35
     514       0       0       1       1                               0D     36
     186      91       0       0       0       0       0       000000000D     37
     186       0       0       1       0                               0D     38
     502      92       0       0       0       0       0       000010000D     39
     502       0       0       1       1                               0D     40
     126      93       0       0       0       0       0       000010000D     41
     126       0       0      11       0                               0D     42
     126     104       0       0       0       0       0       000010000D     43
     126       0       0      11       0                               0D     44
     126     115       0       0       0       0       0       000010000D     45
     126       0       0       2       0                               0D     46
     504     117       0       0       0       0       0       000010000D     47
     504       0       0       1       1                               0D     48
     128     118       0       0       0       0       0       000010000D     49
     128       0       0      20       0                               0D     50
     508     138       0       0       0       0       0       000010000D     51
     508       0       0       1       1                               0D     52
     406     139       0       0       0       0       0       000000000D     53
     406       0       0       1    7223                               0D     54
     510     140       0       0       0       0       0       000010000D     55
     510       0       0       1       1                               0D     56
     128     141       0       0       0       0       0       000010000D     57
     128       0       0      18       0                               0D     58
     508     159       0       0       0       0       0       000010000D     59
     508       0       0       1       1                               0D     60
     406     160       0       0       0       0       0       000000000D     61
     406       0       0       1    7223                               0D     62
     510     161       0       0       0       0       0       000010000D     63
     510       0       0       1       1                               0D     64
     128     162       0       0       0       0       0       000010000D     65
     128       0       0      15       0                               0D     66
     508     177       0       0       0       0       0       000010000D     67
     508       0       0       1       1                               0D     68
     406     178       0       0       0       0       0       000000000D     69
     406       0       0       1    7223                               0D     70
     510     179       0       0       0       0       0       000010000D     71
     510       0       0       1       1                               0D     72
     514     180       0       0       0       0       0       000010000D     73
     514       0       0       1       1                               0D     74
     186     181       0       0       0       0       0       000000000D     75
     186       0       0       1       0                               0D     76
502,2,12.5,0.,2.94859116676281,12.5,0.,4.75930544002787;               1P      1
126,8,2,0,1,0,0,0.,0.,0.,1.5707963267949,1.5707963267949,              3P      2
3.14159265358979,3.14159265358979,4.71238898038469,                    3P      3
4.71238898038469,6.28318530717959,6.28318530717959,                    3P      4
6.28318530717959,1.,0.707106781186548,1.,0.707106781186548,1.,         3P      5
0.707106781186548,1.,0.707106781186548,1.,12.5,0.,                     3P      6
2.94859116676281,12.5,12.5,2.94859116676281,                           3P      7
7.65404249467096D-16,12.5,2.94859116676281,-12.5,12.5,                 3P      8
2.94859116676281,-12.5,1.53080849893419D-15,2.94859116676281,          3P      9
-12.5,-12.5,2.94859116676281,-2.29621274840129D-15,-12.5,              3P     10
2.94859116676281,12.5,-12.5,2.94859116676281,12.5,0.,                  3P     11
2.94859116676281,0.,6.28318530717959,0.,0.,0.;                         3P     12
126,8,2,0,1,0,0,0.,0.,0.,1.5707963267949,1.5707963267949,              5P     13
3.14159265358979,3.14159265358979,4.71238898038469,                    5P     14
4.71238898038469,6.28318530717959,6.28318530717959,                    5P     15
6.28318530717959,1.,0.707106781186548,1.,0.707106781186548,1.,         5P     16
0.707106781186548,1.,0.707106781186548,1.,12.5,0.,                     5P     17
4.75930544002787,12.5,12.5,4.75930544002787,                           5P     18
7.65404249467096D-16,12.5,4.75930544002787,-12.5,12.5,                 5P     19
4.75930544002787,-12.5,1.53080849893419D-15,4.75930544002787,          5P     20
-12.5,-12.5,4.75930544002787,-2.29621274840129D-15,-12.5,              5P     21
4.75930544002787,12.5,-12.5,4.75930544002787,12.5,0.,                  5P     22
4.75930544002787,0.,6.28318530717959,0.,0.,0.;                         5P     23
126,1,1,0,0,1,0,0.,0.,1.,1.,1.,1.,12.5,0.,2.94859116676281,12.5,       7P     24
0.,4.75930544002787,0.,1.,0.,0.,0.;                                    7P     25
504,3,3,1,1,1,1,5,1,2,1,2,7,1,1,1,2;                                   9P     26
128,4,4,2,2,0,0,0,0,0,0.,0.,0.,0.5,0.5,1.,1.,1.,0.,0.,0.,0.5,         11P     27
0.5,1.,1.,1.,1.,0.707106781186548,1.,0.707106781186548,1.,            11P     28
0.707106781186548,0.5,0.707106781186548,0.5,0.707106781186548,        11P     29
1.,0.707106781186548,1.,0.707106781186548,1.,0.707106781186548,       11P     30
0.5,0.707106781186548,0.5,0.707106781186548,1.,                       11P     31
0.707106781186548,1.,0.707106781186548,1.,-27.97,0.,27.97,            11P     32
-27.97,0.,27.97,-27.97,0.,27.97,-27.97,0.,27.97,-27.97,0.,27.97,      11P     33
-27.97,27.97,27.97,-27.97,27.97,2.22363046378995D-14,-27.97,          11P     34
3.39736848787545D-14,3.5527136788005D-15,-27.97,                      11P     35
-27.9699999999999,-1.69072341196987D-14,-27.97,-27.97,27.97,          11P     36
1.28166194453085D-14,27.97,27.97,-8.03663241266393D-16,27.97,         11P     37
9.20022565096465D-16,-8.06830723822441D-15,1.24981861665944D-14,      11P     38
-3.5527136788005D-15,-1.53329512351824D-14,-27.97,                    11P     39
-9.80180676209772D-15,-1.71266854860757D-15,-27.97,27.97,27.97,       11P     40
27.97,27.9699999999999,27.97,27.97,-2.75016868653075D-14,27.97,       11P     41
-8.97731254556558D-15,-1.77635683940025D-14,27.9699999999999,         11P     42
-27.97,-9.80180676209772D-15,27.97,-27.97,27.97,27.97,0.,27.97,       11P     43
27.97,0.,27.97,27.97,0.,27.97,27.97,0.,27.97,27.97,0.,27.97,0.,       11P     44
1.,0.,1.;                                                             11P     45
508,1,0,9,1,1,0;                                                      13P     46
406,1,1;                                                              15P     47
510,11,1,1,13,0,1,15;                                                 17P     48
128,4,4,2,2,0,0,0,0,0,0.,0.,0.,0.5,0.5,1.,1.,1.,0.,0.,0.,0.5,         19P     49
0.5,1.,1.,1.,1.,0.707106781186548,1.,0.707106781186548,1.,            19P     50
0.707106781186548,0.5,0.707106781186548,0.5,0.707106781186548,        19P     51
1.,0.707106781186548,1.,0.707106781186548,1.,0.707106781186548,       19P     52
0.5,0.707106781186548,0.5,0.707106781186548,1.,                       19P     53
0.707106781186548,1.,0.707106781186548,1.,18.85,0.,                   19P     54
-9.34999999999999,18.85,0.,-9.34999999999999,18.85,0.,                19P     55
-9.34999999999999,18.85,0.,-9.34999999999999,18.85,0.,                19P     56
-9.34999999999999,18.85,18.85,-9.35,18.85,18.85,9.5,18.85,            19P     57
1.43593714617266D-14,9.5,18.85,-18.85,9.50000000000001,18.85,         19P     58
-18.85,-9.34999999999999,-1.33750583857197D-14,18.85,                 19P     59
-9.34999999999999,-7.09692748500058D-15,18.85,9.5,                    19P     60
1.67716511957436D-16,-1.06998928324682D-17,9.5,                       19P     61
7.43236050891545D-15,-18.85,9.5,1.15422960819638D-15,-18.85,          19P     62
-9.34999999999999,-18.85,18.85,-9.34999999999997,-18.85,18.85,        19P     63
9.50000000000001,-18.85,-1.43807712473915D-14,9.5,-18.85,-18.85,      19P     64
9.49999999999999,-18.85,-18.85,-9.34999999999999,-18.85,0.,           19P     65
-9.34999999999999,-18.85,0.,-9.34999999999999,-18.85,0.,              19P     66
-9.34999999999999,-18.85,0.,-9.34999999999999,-18.85,0.,              19P     67
-9.34999999999999,0.,1.,0.,1.;                                        19P     68
508,1,0,9,2,0,0;                                                      21P     69
406,1,2;                                                              23P     70
510,19,1,1,21,0,1,23;                                                 25P     71
128,8,1,2,1,1,0,0,0,0,0.,0.,0.,0.25,0.25,0.5,0.5,0.75,0.75,1.,        27P     72
1.,1.,0.,0.,1.,1.,1.,0.707106781186548,1.,0.707106781186548,1.,       27P     73
0.707106781186548,1.,0.707106781186548,1.,1.,0.707106781186548,       27P     74
1.,0.707106781186548,1.,0.707106781186548,1.,0.707106781186548,       27P     75
1.,12.5,0.,2.94859116676281,12.5,-12.5,2.94859116676281,              27P     76
-4.73870340257663D-15,-12.5,2.94859116676281,-12.5,-12.5,             27P     77
2.94859116676281,-12.5,5.97170059743482D-15,2.94859116676281,         27P     78
-12.5,12.5,2.94859116676281,2.76380569379238D-15,12.5,                27P     79
2.94859116676281,12.5,12.5,2.94859116676281,12.5,0.,                  27P     80
2.94859116676281,12.5,0.,4.75930544002787,12.5,-12.5,                 27P     81
4.75930544002787,-4.73870340257663D-15,-12.5,4.75930544002787,        27P     82
-12.5,-12.5,4.75930544002787,-12.5,5.97170059743482D-15,              27P     83
4.75930544002787,-12.5,12.5,4.75930544002787,                         27P     84
2.76380569379238D-15,12.5,4.75930544002787,12.5,12.5,                 27P     85
4.75930544002787,12.5,0.,4.75930544002787,0.,1.,0.,1.;                27P     86
508,4,0,9,3,0,0,0,9,1,0,0,0,9,3,1,0,0,9,2,1,0;                        29P     87
406,1,0;                                                              31P     88
510,27,1,1,29,0,1,31;                                                 33P     89
514,3,17,1,25,1,33,1;                                                 35P     90
186,35,0,0;                                                           37P     91
502,2,12.5,0.,4.75930544002787,12.5,0.,11.4883228274851;              39P     92
126,8,2,0,1,0,0,0.,0.,0.,1.5707963267949,1.5707963267949,             41P     93
3.14159265358979,3.14159265358979,4.71238898038469,                   41P     94
4.71238898038469,6.28318530717959,6.28318530717959,                   41P     95
6.28318530717959,1.,0.707106781186548,1.,0.707106781186548,1.,        41P     96
0.707106781186548,1.,0.707106781186548,1.,12.5,0.,                    41P     97
4.75930544002787,12.5,12.5,4.75930544002787,                          41P     98
7.65404249467096D-16,12.5,4.75930544002787,-12.5,12.5,                41P     99
4.75930544002787,-12.5,1.53080849893419D-15,4.75930544002787,         41P    100
-12.5,-12.5,4.75930544002787,-2.29621274840129D-15,-12.5,             41P    101
4.75930544002787,12.5,-12.5,4.75930544002787,12.5,0.,                 41P    102
4.75930544002787,0.,6.28318530717959,0.,0.,0.;                        41P    103
126,8,2,0,1,0,0,0.,0.,0.,1.5707963267949,1.5707963267949,             43P    104
3.14159265358979,3.14159265358979,4.71238898038469,                   43P    105
4.71238898038469,6.28318530717959,6.28318530717959,                   43P    106
6.28318530717959,1.,0.707106781186548,1.,0.707106781186548,1.,        43P    107
0.707106781186548,1.,0.707106781186548,1.,12.5,0.,                    43P    108
11.4883228274851,12.5,12.5,11.4883228274851,                          43P    109
7.65404249467096D-16,12.5,11.4883228274851,-12.5,12.5,                43P    110
11.4883228274851,-12.5,1.53080849893419D-15,11.4883228274851,         43P    111
-12.5,-12.5,11.4883228274851,-2.29621274840129D-15,-12.5,             43P    112
11.4883228274851,12.5,-12.5,11.4883228274851,12.5,0.,                 43P    113
11.4883228274851,0.,6.28318530717959,0.,0.,0.;                        43P    114
126,1,1,0,0,1,0,0.,0.,1.,1.,1.,1.,12.5,0.,4.75930544002787,12.5,      45P    115
0.,11.4883228274851,0.,1.,0.,0.,0.;                                   45P    116
504,3,41,39,1,39,1,43,39,2,39,2,45,39,1,39,2;                         47P    117
128,4,4,2,2,0,0,0,0,0,0.,0.,0.,0.5,0.5,1.,1.,1.,0.,0.,0.,0.5,         49P    118
0.5,1.,1.,1.,1.,0.707106781186548,1.,0.707106781186548,1.,            49P    119
0.707106781186548,0.5,0.707106781186548,0.5,0.707106781186548,        49P    120
1.,0.707106781186548,1.,0.707106781186548,1.,0.707106781186548,       49P    121
0.5,0.707106781186548,0.5,0.707106781186548,1.,                       49P    122
0.707106781186548,1.,0.707106781186548,1.,18.85,0.,                   49P    123
-9.34999999999999,18.85,0.,-9.34999999999999,18.85,0.,                49P    124
-9.34999999999999,18.85,0.,-9.34999999999999,18.85,0.,                49P    125
-9.34999999999999,18.85,-18.85,-9.35,18.85,-18.85,9.5,18.85,          49P    126
-1.25830146223263D-14,9.5,18.85,18.85,9.5,18.85,18.85,                49P    127
-9.34999999999999,-1.33750583857197D-14,-18.85,                       49P    128
-9.34999999999999,-7.09692748500059D-15,-18.85,9.5,                   49P    129
1.67716511957431D-16,1.78705673223272D-15,9.5,                        49P    130
7.43236050891545D-15,18.85,9.5,1.15422960819638D-15,18.85,            49P    131
-9.34999999999999,-18.85,-18.85,-9.34999999999997,-18.85,-18.85,      49P    132
9.50000000000001,-18.85,1.61571280867917D-14,9.5,-18.85,18.85,        49P    133
9.49999999999999,-18.85,18.85,-9.34999999999999,-18.85,0.,            49P    134
-9.34999999999999,-18.85,0.,-9.34999999999999,-18.85,0.,              49P    135
-9.34999999999999,-18.85,0.,-9.34999999999999,-18.85,0.,              49P    136
-9.34999999999999,0.,1.,0.,1.;                                        49P    137
508,1,0,47,1,1,0;                                                     51P    138
406,1,1;                                                              53P    139
510,49,1,1,51,0,1,53;                                                 55P    140
128,4,4,2,2,0,0,0,0,0,0.,0.,0.,0.5,0.5,1.,1.,1.,0.,0.,0.,0.5,         57P    141
0.5,1.,1.,1.,1.,0.707106781186547,1.,0.707106781186547,1.,            57P    142
0.707106781186548,0.5,0.707106781186548,0.5,0.707106781186548,        57P    143
1.,0.707106781186547,1.,0.707106781186547,1.,0.707106781186548,       57P    144
0.5,0.707106781186548,0.5,0.707106781186548,1.,                       57P    145
0.707106781186547,1.,0.707106781186547,1.,152.94,0.,-140.94,          57P    146
152.94,0.,-140.94,152.94,0.,-140.94,152.94,0.,-140.94,152.94,0.,      57P    147
-140.94,152.94,152.94,-140.94,152.94,152.94,11.9999999999998,         57P    148
152.94,8.69758391117928D-14,11.9999999999999,152.94,-152.94,          57P    149
12.0000000000001,152.94,-152.94,-140.94,9.36487407307981D-15,         57P    150
152.94,-140.94,9.36487407307981D-15,152.94,11.9999999999998,          57P    151
9.36487407307981D-15,8.69758391117928D-14,11.9999999999999,           57P    152
9.36487407307981D-15,-152.94,12.0000000000001,                        57P    153
9.36487407307981D-15,-152.94,-140.94,-152.94,152.94,-140.94,          57P    154
-152.94,152.94,11.9999999999999,-152.94,8.69758391117928D-14,         57P    155
12.,-152.94,-152.94,12.0000000000001,-152.94,-152.94,-140.94,         57P    156
-152.94,0.,-140.94,-152.94,0.,-140.94,-152.94,0.,-140.94,             57P    157
-152.94,0.,-140.94,-152.94,0.,-140.94,0.,1.,0.,1.;                    57P    158
508,1,0,47,2,0,0;                                                     59P    159
406,1,2;                                                              61P    160
510,57,1,1,59,0,1,61;                                                 63P    161
128,8,1,2,1,1,0,0,0,0,0.,0.,0.,0.25,0.25,0.5,0.5,0.75,0.75,1.,        65P    162
1.,1.,0.,0.,1.,1.,1.,0.707106781186548,1.,0.707106781186548,1.,       65P    163
0.707106781186548,1.,0.707106781186548,1.,1.,0.707106781186548,       65P    164
1.,0.707106781186548,1.,0.707106781186548,1.,0.707106781186548,       65P    165
1.,12.5,0.,4.75930544002787,12.5,-12.5,4.75930544002787,              65P    166
-4.73870340257663D-15,-12.5,4.75930544002787,-12.5,-12.5,             65P    167
4.75930544002787,-12.5,5.97170059743482D-15,4.75930544002787,         65P    168
-12.5,12.5,4.75930544002787,2.76380569379238D-15,12.5,                65P    169
4.75930544002787,12.5,12.5,4.75930544002787,12.5,0.,                  65P    170
4.75930544002787,12.5,0.,11.488322827485,12.5,-12.5,                  65P    171
11.4883228274851,-4.26057796023052D-15,-12.5,11.488322827485,         65P    172
-12.5,-12.5,11.4883228274851,-12.5,5.97170059743482D-15,              65P    173
11.488322827485,-12.5,12.5,11.4883228274851,                          65P    174
3.24193113613849D-15,12.5,11.488322827485,12.5,12.5,                  65P    175
11.4883228274851,12.5,0.,11.488322827485,0.,1.,0.,1.;                 65P    176
508,4,0,47,3,0,0,0,47,1,0,0,0,47,3,1,0,0,47,2,1,0;                    67P    177
406,1,0;                                                              69P    178
510,65,1,1,67,0,1,69;                                                 71P    179
514,3,55,1,63,1,71,1;                                                 73P    180
186,73,0,0;                                                           75P    181
S      1G      4D     76P    181                                        T      1
